<?xml version="1.0" standalone="no"?>
<!DOCTYPE svg PUBLIC "-//W3C//DTD SVG 20010904//EN"
 "http://www.w3.org/TR/2001/REC-SVG-20010904/DTD/svg10.dtd">
<svg version="1.0" xmlns="http://www.w3.org/2000/svg"
 width="512.000000pt" height="512.000000pt" viewBox="0 0 512.000000 512.000000"
 preserveAspectRatio="xMidYMid meet">

<g transform="translate(0.000000,512.000000) scale(0.100000,-0.100000)"
fill="#000000" stroke="none">
<path d="M2130 4831 c-59 -12 -109 -42 -144 -85 -33 -41 -903 -1545 -937
-1621 -24 -53 -24 -147 0 -200 38 -83 115 -136 213 -143 75 -6 150 28 200 89
43 54 925 1587 944 1642 39 110 -10 234 -113 289 -54 29 -111 39 -163 29z"/>
<path d="M2900 4830 c-58 -12 -86 -27 -125 -66 -81 -80 -97 -184 -46 -289 52
-107 899 -1569 932 -1609 86 -103 242 -114 343 -24 85 74 110 190 63 289 -59
125 -916 1597 -949 1631 -58 58 -141 84 -218 68z"/>
<path d="M195 3121 c-191 -47 -258 -282 -119 -417 51 -49 115 -74 193 -74 l56
0 249 -937 c137 -516 261 -965 276 -998 33 -73 100 -142 181 -185 47 -25 82
-34 154 -43 l93 -11 4 -58 c5 -67 24 -93 77 -108 48 -13 685 -13 733 0 54 15
78 51 78 116 l0 54 424 0 424 0 4 -60 c5 -69 23 -95 77 -110 48 -13 685 -13
733 0 54 15 78 51 78 116 0 59 -5 55 85 69 102 17 229 118 275 220 15 33 140
482 276 997 l249 938 56 0 c121 0 219 66 254 169 40 121 -11 241 -129 304 -39
21 -53 22 -351 25 l-310 3 0 -98 c0 -147 -43 -254 -141 -349 -150 -144 -356
-174 -549 -79 -94 46 -151 114 -276 329 l-114 196 -676 0 -676 0 -99 -172
c-142 -248 -183 -296 -297 -354 -264 -135 -581 2 -668 288 -17 55 -20 87 -17
154 l4 84 -290 -1 c-160 -1 -304 -4 -321 -8z m1263 -962 c12 -8 31 -32 42 -55
19 -39 20 -63 20 -600 0 -512 -1 -562 -18 -593 -37 -74 -120 -100 -189 -61
-77 43 -73 9 -73 655 0 614 -1 604 49 649 39 35 116 38 169 5z m803 -15 c16
-15 34 -44 39 -63 6 -22 10 -252 10 -578 0 -476 -2 -548 -16 -583 -43 -106
-186 -119 -246 -21 l-23 36 -3 530 c-2 292 0 554 3 584 15 124 150 178 236 95z
m796 -7 c24 -27 33 -48 38 -88 3 -30 5 -292 3 -584 -3 -509 -4 -531 -23 -564
-23 -39 -77 -71 -120 -71 -43 0 -97 32 -120 71 -19 33 -20 55 -23 587 -2 352
1 566 8 590 28 107 162 140 237 59z m791 -1 l32 -36 0 -586 c0 -654 3 -622
-70 -663 -65 -36 -138 -20 -181 40 l-24 34 -3 560 c-2 365 0 572 7 595 31 106
164 137 239 56z"/>
</g>
</svg>
