<svg xmlns="http://www.w3.org/2000/svg" viewBox="0 0 247.52 253.84"><defs><style>.cls-1,.cls-2,.cls-3,.cls-4{fill:#a67c52;stroke:#a67c52;}.cls-1,.cls-2,.cls-3,.cls-4,.cls-5,.cls-6{stroke-miterlimit:10;}.cls-1{opacity:0.9;}.cls-2{opacity:0.8;}.cls-3{opacity:0.7;}.cls-4{opacity:0.6;}.cls-5{fill:none;stroke-width:5px;}.cls-5,.cls-6,.cls-7,.cls-8{stroke:#ffece7;}.cls-6,.cls-7,.cls-8{fill:#ffece7;}.cls-7{stroke-miterlimit:10;}.cls-8{stroke-miterlimit:10;}</style></defs><g id="Слой_2" data-name="Слой 2"><g id="Слой_1-2" data-name="Слой 1"><path class="cls-1" d="M123.31,35.86h81.81c29.76,0,48.36,31.55,33.48,56.79L197.69,162l-40.9,69.39c-14.88,25.24-52.08,25.24-67,0L48.92,162,8,92.65C-6.86,67.41,11.73,35.86,41.49,35.86Z"/><path class="cls-2" d="M188.48,67.48l49.79,55.58c18.12,20.21,6.57,53.33-20.77,59.61l-75.18,17.26L67.14,217.2c-27.34,6.28-50-19-40.75-45.49L51.77,98.88,77.16,26c9.23-26.5,43.41-34.35,61.52-14.13Z"/><path class="cls-3" d="M84.62,69.92l67.27-46.56C176.36,6.42,209.61,21.77,211.74,51l5.86,80.34,5.87,80.34c2.13,29.22-28.46,50.39-55.06,38.11L95.28,216,22.15,182.24c-26.6-12.28-29.26-48.81-4.8-65.75Z"/><path class="cls-4" d="M159.19,55.89,226.54,88c24.5,11.68,26.6,46.69,3.78,63L167.59,195.9l-62.74,44.88C82,257.11,51.41,242.51,49.73,214.5l-4.62-77-4.62-77c-1.68-28,26.85-48.41,51.34-36.73Z"/></g><g id="Слой_2-2" data-name="Слой 2"><g id="Слой_2-3" data-name="Слой 2"><g id="Слой_2-2-2" data-name="Слой 2-2"><path class="cls-5" d="M200.4,107.61s-.51,13.81-1.79,20.68a111.12,111.12,0,0,1-4.34,16.34,123.32,123.32,0,0,1-12.76,25.53,101.9,101.9,0,0,1-8.94,11.75l-31.66.51s-3.07-8.32-6.64-9.45c-5.38-1.72-9.56,7.47-16.85,7.4-5.55,0-9.46-5.44-15.32-13.78a85.79,85.79,0,0,1-15.57-36.23,84.15,84.15,0,0,1-.88-21.73Z"/><path class="cls-5" d="M188.53,161.48c2.06.4,5.56,0,9.95-.38s5.28-1.51,8.43-4.6a17.71,17.71,0,0,0,4.72-8.17,14.45,14.45,0,0,0-.38-9.83c-.59-1.29-1.73-5.21-5.23-5.49-2.67-.21-7.34-.43-8.22-.14"/><path class="cls-5" d="M86.4,120.48l113.18-.3"/><path class="cls-5" d="M201.55,123.05c1.68-.34,8.31,0,11,1.94,5.82,4.2,7.24,7.64,7.84,9,3.39,7.88.53,15.44-1,19.53A29,29,0,0,1,209.81,167c-4.17,3.14-8.09,4.76-10.6,4.85-7,.26-17.74,0-17.74,0"/><path class="cls-5" d="M72.48,132.12c2.44-5,4-5,5.11-9.45a10.56,10.56,0,0,0-3.32-10c-4.82-4.08-12.62-.78-18.13,2-4.72,2.42-3.44,5.74-8,10-2.81,2.58-6.11,1.46-8.81,3.83-1.59,1.41-2.16,3.24-3.32,6.9-.95,3-1.77,5.56-1.57,9,.23,3.75,1.48,5,.51,6.9s-2.78,1.58-4.34,3.32c-2,2.19-1.42,5.49-.25,12,1.1,6.16,1.8,9.81,4.85,13,1.86,1.95,5.23,1.34,4.08,3.06-4.59,6.89-1.26,16.58,3.58,25.28,3.73,6.71,13.61,10.07,20.42,7.91,2.56-.81,3.58-2.05,9.71-9.19,13.68-16,13.4-20.17,17.61-26,1.4-2,.9-5-.51-7.66-3.7-7-6.18-6.91-12-14.81-3.4-4.62-3.23-13.28-3.45-16.6C74.33,136.48,70.16,136.87,72.48,132.12Z"/><path class="cls-5" d="M78.68,160.78c-1.68.25-5.22-.82-8,.32-4.41,1.81-5.43,3.49-12.13,8.55A158.45,158.45,0,0,1,44.63,179c-1.86,1.11-3.42,2-4.46,2.55"/><path class="cls-5" d="M36.55,149.93c1.78-1,24-2,29.12-2.58a7,7,0,0,1,4.09.42c1,.94,4.38,2,5.47,3.32"/><path class="cls-5" d="M42.11,127.18c7.92,2.82,21.13,5.2,29.05,8"/><path class="cls-5" d="M92.53,173.74a11.88,11.88,0,0,1,4.34.63,11.05,11.05,0,0,1,4.85,3.19c2.07,2.67,1.6,6.22,1.4,7.92-1.85,16.21-.34,21.45-2.3,29.23-.32,1.28-3.47,4.73-8.42,6.51-5.21,1.89-9.72-.59-11.75-1.19a21,21,0,0,1-10.55-7.32"/><path class="cls-5" d="M103.44,177.76a14.89,14.89,0,0,1,3.68-.71,10.7,10.7,0,0,1,6.81,3.07c1.3,1.19,2.13,2.48,4.51,9.36,3.11,9,3.27,12,3.42,13.3.46,4.05.91,6.1-.18,8.15-2,3.72-6.41,5.23-9.2,5.44-5,.39-9,.35-11.57-.42"/><path class="cls-5" d="M140,181.42c0,1.68-.89,10-5.1,15.41a17.66,17.66,0,0,1-11.3,6.39"/><path class="cls-5" d="M173.65,181.84c4.55.54,11.49.45,19.6.45,5,0,8.21-.1,9.91-.18a.52.52,0,0,1,.36.91c-3.51,3-15.3,9.42-29.42,14.72-4.18,1.56-9.72.89-20.36,1.14-8.14.2-14.89-.26-19.6-.38"/><path class="cls-5" d="M124.57,46.2a16.76,16.76,0,0,1-2.68,8.43c-2,2.92-3.77,3.33-4.85,6.25A10.23,10.23,0,0,0,117,68c1.7,4,5.38,3.42,7.4,7.66a9.54,9.54,0,0,1,.64,6.9c-1.22,3.48-4.46,3.7-6.26,7.53a10.85,10.85,0,0,0-.89,5.62"/><path class="cls-5" d="M145.65,46.2A17,17,0,0,1,143,54.63c-2,2.92-3.78,3.33-4.86,6.25a10.23,10.23,0,0,0,0,7.15c1.71,4,5.38,3.42,7.41,7.66a9.64,9.64,0,0,1,.64,6.9c-1.23,3.48-4.46,3.7-6.26,7.53a10.85,10.85,0,0,0-.89,5.62"/><path class="cls-5" d="M167.81,46.2a16.86,16.86,0,0,1-2.68,8.43c-2,2.92-3.77,3.33-4.85,6.25a10.12,10.12,0,0,0,0,7.15c1.7,4,5.37,3.42,7.4,7.66a9.54,9.54,0,0,1,.64,6.9c-1.22,3.48-4.46,3.7-6.26,7.53a10.85,10.85,0,0,0-.89,5.62"/><ellipse class="cls-6" cx="117.93" cy="95.72" rx="2.03" ry="2.2"/><ellipse class="cls-7" cx="139.02" cy="95.89" rx="2.01" ry="1.96" transform="translate(-16.25 162.33) rotate(-57.76)"/><circle class="cls-6" cx="161.15" cy="95.79" r="2.01"/><ellipse class="cls-8" cx="124.6" cy="45.87" rx="2.01" ry="2.04" transform="translate(63.7 163.85) rotate(-82.91)"/><ellipse class="cls-8" cx="145.69" cy="46.02" rx="2.01" ry="2.04" transform="translate(82.04 184.91) rotate(-82.91)"/><ellipse class="cls-8" cx="167.78" cy="46.32" rx="2.01" ry="2.04" transform="translate(101.11 207.1) rotate(-82.91)"/></g></g></g></g></svg>