<svg xmlns="http://www.w3.org/2000/svg" viewBox="0 0 197.72 181.06"><defs><style>.cls-1{fill:none;stroke-width:5px;}.cls-1,.cls-2{stroke:#ffece7;stroke-miterlimit:10;}.cls-2{fill:#ffece7;}</style></defs><g id="Слой_2" data-name="Слой 2"><g id="Слой_2-2" data-name="Слой 2"><path class="cls-1" d="M173.59,64.25s-.51,13.81-1.79,20.68a109.81,109.81,0,0,1-4.34,16.34A123,123,0,0,1,154.7,126.8a101.61,101.61,0,0,1-8.94,11.75l-31.66.51s-3.07-8.32-6.64-9.45c-5.38-1.72-9.56,7.47-16.85,7.4-5.55,0-9.46-5.44-15.32-13.78A85.84,85.84,0,0,1,59.72,87a84.51,84.51,0,0,1-.88-21.73Z"/><path class="cls-1" d="M161.72,118.12c2.06.4,5.56,0,9.95-.38s5.28-1.51,8.43-4.6a17.62,17.62,0,0,0,4.72-8.17,14.38,14.38,0,0,0-.38-9.83c-.59-1.29-1.73-5.21-5.23-5.49-2.67-.21-7.34-.43-8.22-.14"/><path class="cls-1" d="M59.59,77.12l113.18-.3"/><path class="cls-1" d="M174.74,79.69c1.68-.34,8.31,0,11,1.94,5.82,4.2,7.24,7.64,7.84,9,3.39,7.88.53,15.44-1,19.53A28.89,28.89,0,0,1,183,123.61c-4.17,3.14-8.09,4.76-10.6,4.85-7,.26-17.74,0-17.74,0"/><path class="cls-1" d="M45.67,88.76c2.44-5,4-5,5.11-9.45a10.54,10.54,0,0,0-3.32-10c-4.82-4.08-12.62-.78-18.13,2.05-4.72,2.42-3.44,5.74-8,9.95-2.81,2.58-6.11,1.46-8.81,3.83-1.59,1.41-2.16,3.24-3.32,6.9C8.25,95,7.43,97.6,7.63,101c.23,3.75,1.48,5,.51,6.9s-2.78,1.58-4.34,3.32c-2,2.19-1.42,5.49-.25,12,1.1,6.16,1.8,9.81,4.85,13,1.86,1.95,5.23,1.34,4.08,3.06-4.59,6.89-1.26,16.58,3.58,25.28,3.73,6.71,13.61,10.07,20.42,7.91,2.56-.81,3.58-2.05,9.71-9.19,13.68-16,13.4-20.17,17.61-26,1.4-2,.9-5-.51-7.66-3.7-7-6.18-6.91-12-14.81-3.4-4.62-3.23-13.28-3.45-16.6C47.52,93.12,43.35,93.51,45.67,88.76Z"/><path class="cls-1" d="M51.87,117.42c-1.68.25-5.22-.82-8,.32-4.41,1.81-5.43,3.49-12.13,8.55a156,156,0,0,1-13.92,9.32c-1.86,1.11-3.42,2-4.46,2.55"/><path class="cls-1" d="M9.74,106.57c1.78-1,24-2,29.12-2.58a7,7,0,0,1,4.09.42c1,.94,4.38,2,5.47,3.32"/><path class="cls-1" d="M15.3,83.82c7.92,2.82,21.13,5.2,29.05,8"/><path class="cls-1" d="M65.72,130.38a11.88,11.88,0,0,1,4.34.63,11,11,0,0,1,4.85,3.19c2.07,2.67,1.6,6.22,1.4,7.92-1.85,16.21-.34,21.45-2.3,29.23-.32,1.28-3.47,4.73-8.42,6.51-5.21,1.89-9.72-.59-11.75-1.19a21.06,21.06,0,0,1-10.55-7.32"/><path class="cls-1" d="M76.63,134.4a15.49,15.49,0,0,1,3.68-.71,10.69,10.69,0,0,1,6.81,3.07c1.3,1.19,2.13,2.48,4.51,9.36,3.11,9,3.27,12,3.42,13.3.46,4.05.91,6.1-.18,8.15-2,3.72-6.41,5.23-9.2,5.44-5,.39-9,.35-11.57-.42"/><path class="cls-1" d="M113.14,138.06c0,1.68-.89,10-5.1,15.41a17.65,17.65,0,0,1-11.3,6.39"/><path class="cls-1" d="M146.84,138.48c4.55.54,11.49.45,19.6.45,5,0,8.21-.1,9.91-.18a.52.52,0,0,1,.36.91c-3.51,3-15.3,9.42-29.42,14.72-4.18,1.56-9.72.89-20.36,1.14-8.14.2-14.89-.26-19.6-.38"/><path class="cls-1" d="M97.76,2.84a16.73,16.73,0,0,1-2.68,8.43c-2,2.92-3.77,3.33-4.85,6.25a10.25,10.25,0,0,0,0,7.15c1.7,4,5.38,3.42,7.4,7.66a9.53,9.53,0,0,1,.64,6.9c-1.22,3.48-4.46,3.7-6.26,7.53a11,11,0,0,0-.89,5.62"/><path class="cls-1" d="M118.84,2.84a16.93,16.93,0,0,1-2.68,8.43c-2,2.92-3.78,3.33-4.86,6.25a10.25,10.25,0,0,0,0,7.15c1.71,4,5.38,3.42,7.41,7.66a9.64,9.64,0,0,1,.64,6.9c-1.23,3.48-4.46,3.7-6.26,7.53a10.86,10.86,0,0,0-.89,5.62"/><path class="cls-1" d="M141,2.84a16.83,16.83,0,0,1-2.68,8.43c-2,2.92-3.77,3.33-4.85,6.25a10.19,10.19,0,0,0,0,7.15c1.7,4,5.37,3.42,7.4,7.66a9.53,9.53,0,0,1,.64,6.9c-1.22,3.48-4.46,3.7-6.26,7.53a11,11,0,0,0-.89,5.62"/><ellipse class="cls-2" cx="91.12" cy="52.36" rx="2.03" ry="2.2"/><ellipse class="cls-2" cx="112.22" cy="52.53" rx="2.01" ry="1.96" transform="translate(7.92 119.43) rotate(-57.76)"/><circle class="cls-2" cx="134.34" cy="52.43" r="2.01"/><ellipse class="cls-2" cx="97.78" cy="2.51" rx="2.01" ry="2.04" transform="translate(83.23 99.23) rotate(-82.91)"/><ellipse class="cls-2" cx="118.88" cy="2.66" rx="2.01" ry="2.04" transform="translate(101.57 120.3) rotate(-82.91)"/><ellipse class="cls-2" cx="140.97" cy="2.96" rx="2.01" ry="2.04" transform="translate(120.64 142.49) rotate(-82.91)"/></g></g></svg>